<svg xmlns="http://www.w3.org/2000/svg" width="170.07000000000002" height="35" viewBox="0 0 170.07000000000002 35"><rect class="svg__rect" x="0" y="0" width="55.260000000000005" height="35" fill="#E66464"/><rect class="svg__rect" x="53.260000000000005" y="0" width="116.81000000000002" height="35" fill="#CF3C3C"/><path class="svg__text" d="M13.95 18.19L13.95 18.19L13.95 17.39Q13.95 16.19 14.38 15.27Q14.80 14.35 15.60 13.85Q16.40 13.35 17.45 13.35L17.45 13.35Q18.86 13.35 19.73 14.12Q20.59 14.89 20.73 16.29L20.73 16.29L19.25 16.29Q19.14 15.37 18.71 14.96Q18.28 14.55 17.45 14.55L17.45 14.55Q16.48 14.55 15.97 15.26Q15.45 15.96 15.44 17.33L15.44 17.33L15.44 18.09Q15.44 19.47 15.93 20.20Q16.43 20.92 17.38 20.92L17.38 20.92Q18.25 20.92 18.69 20.53Q19.13 20.14 19.25 19.22L19.25 19.22L20.73 19.22Q20.60 20.59 19.72 21.35Q18.84 22.12 17.38 22.12L17.38 22.12Q16.36 22.12 15.59 21.63Q14.81 21.15 14.39 20.26Q13.97 19.37 13.95 18.19ZM24.61 19.42L24.61 19.42L26.09 19.42Q26.09 20.15 26.57 20.55Q27.05 20.95 27.95 20.95L27.95 20.95Q28.72 20.95 29.11 20.63Q29.50 20.32 29.50 19.80L29.50 19.80Q29.50 19.24 29.10 18.94Q28.71 18.63 27.68 18.32Q26.64 18.01 26.04 17.63L26.04 17.63Q24.87 16.90 24.87 15.72L24.87 15.72Q24.87 14.69 25.71 14.02Q26.55 13.35 27.89 13.35L27.89 13.35Q28.78 13.35 29.48 13.68Q30.18 14.01 30.58 14.61Q30.98 15.22 30.98 15.96L30.98 15.96L29.50 15.96Q29.50 15.29 29.08 14.91Q28.66 14.54 27.88 14.54L27.88 14.54Q27.15 14.54 26.75 14.85Q26.35 15.16 26.35 15.71L26.35 15.71Q26.35 16.18 26.79 16.50Q27.22 16.81 28.22 17.10Q29.21 17.40 29.81 17.78Q30.42 18.16 30.70 18.65Q30.98 19.13 30.98 19.79L30.98 19.79Q30.98 20.86 30.16 21.49Q29.35 22.12 27.95 22.12L27.95 22.12Q27.02 22.12 26.24 21.77Q25.47 21.43 25.04 20.83Q24.61 20.22 24.61 19.42ZM34.84 19.42L34.84 19.42L36.32 19.42Q36.32 20.15 36.80 20.55Q37.28 20.95 38.18 20.95L38.18 20.95Q38.95 20.95 39.34 20.63Q39.73 20.32 39.73 19.80L39.73 19.80Q39.73 19.24 39.33 18.94Q38.94 18.63 37.91 18.32Q36.88 18.01 36.27 17.63L36.27 17.63Q35.10 16.90 35.10 15.72L35.10 15.72Q35.10 14.69 35.94 14.02Q36.78 13.35 38.12 13.35L38.12 13.35Q39.01 13.35 39.71 13.68Q40.41 14.01 40.81 14.61Q41.21 15.22 41.21 15.96L41.21 15.96L39.73 15.96Q39.73 15.29 39.31 14.91Q38.89 14.54 38.11 14.54L38.11 14.54Q37.39 14.54 36.98 14.85Q36.58 15.16 36.58 15.71L36.58 15.71Q36.58 16.18 37.02 16.50Q37.45 16.81 38.45 17.10Q39.44 17.40 40.05 17.78Q40.65 18.16 40.93 18.65Q41.21 19.13 41.21 19.79L41.21 19.79Q41.21 20.86 40.39 21.49Q39.58 22.12 38.18 22.12L38.18 22.12Q37.25 22.12 36.47 21.77Q35.70 21.43 35.27 20.83Q34.84 20.22 34.84 19.42Z" fill="#FFFFFF"/><path class="svg__text" d="M67.02 17.80L67.02 17.80Q67.02 16.54 67.62 15.54Q68.22 14.55 69.28 13.99Q70.35 13.43 71.70 13.43L71.70 13.43Q72.87 13.43 73.81 13.83Q74.75 14.22 75.37 14.97L75.37 14.97L73.86 16.33Q73.01 15.40 71.84 15.40L71.84 15.40Q71.82 15.40 71.82 15.40L71.82 15.40Q70.74 15.40 70.08 16.06Q69.42 16.71 69.42 17.80L69.42 17.80Q69.42 18.50 69.72 19.04Q70.02 19.59 70.56 19.89Q71.10 20.20 71.80 20.20L71.80 20.20Q72.48 20.20 73.08 19.93L73.08 19.93L73.08 17.62L75.18 17.62L75.18 21.10Q74.46 21.61 73.52 21.89Q72.59 22.17 71.65 22.17L71.65 22.17Q70.33 22.17 69.27 21.61Q68.22 21.05 67.62 20.05Q67.02 19.06 67.02 17.80ZM82.55 22L80.17 22L80.17 13.60L84.01 13.60Q85.15 13.60 85.99 13.98Q86.83 14.35 87.29 15.06Q87.74 15.76 87.74 16.71L87.74 16.71Q87.74 17.62 87.32 18.30Q86.89 18.98 86.10 19.36L86.10 19.36L87.91 22L85.37 22L83.84 19.77L82.55 19.77L82.55 22ZM82.55 15.47L82.55 17.93L83.87 17.93Q84.60 17.93 84.97 17.61Q85.34 17.29 85.34 16.71L85.34 16.71Q85.34 16.12 84.97 15.79Q84.60 15.47 83.87 15.47L83.87 15.47L82.55 15.47ZM93.95 22L91.52 22L95.23 13.60L97.58 13.60L101.29 22L98.82 22L98.16 20.37L94.61 20.37L93.95 22ZM96.39 15.93L95.30 18.61L97.47 18.61L96.39 15.93ZM109.42 22L105.45 22L105.45 13.60L109.42 13.60Q110.80 13.60 111.87 14.12Q112.93 14.63 113.52 15.58Q114.11 16.53 114.11 17.80L114.11 17.80Q114.11 19.07 113.52 20.02Q112.93 20.97 111.87 21.48Q110.80 22 109.42 22L109.42 22ZM107.82 15.50L107.82 20.10L109.32 20.10Q110.40 20.10 111.06 19.49Q111.71 18.88 111.71 17.80L111.71 17.80Q111.71 16.72 111.06 16.11Q110.40 15.50 109.32 15.50L109.32 15.50L107.82 15.50ZM121.22 22L118.84 22L118.84 13.60L121.22 13.60L121.22 22ZM133.14 22L126.39 22L126.39 13.60L132.98 13.60L132.98 15.44L128.75 15.44L128.75 16.85L132.48 16.85L132.48 18.63L128.75 18.63L128.75 20.17L133.14 20.17L133.14 22ZM140.27 22L137.94 22L137.94 13.60L139.90 13.60L143.61 18.07L143.61 13.60L145.93 13.60L145.93 22L143.98 22L140.27 17.52L140.27 22ZM152.89 15.48L150.31 15.48L150.31 13.60L157.83 13.60L157.83 15.48L155.26 15.48L155.26 22L152.89 22L152.89 15.48Z" fill="#FFFFFF" x="66.26"/></svg>