<svg xmlns="http://www.w3.org/2000/svg" width="149.14000000000001" height="35" viewBox="0 0 149.14000000000001 35"><rect class="svg__rect" x="0" y="0" width="55.260000000000005" height="35" fill="#CC85C9"/><rect class="svg__rect" x="53.260000000000005" y="0" width="95.88000000000001" height="35" fill="#B849B9"/><path class="svg__text" d="M13.95 18.19L13.95 18.19L13.95 17.39Q13.95 16.19 14.38 15.27Q14.80 14.35 15.60 13.85Q16.40 13.35 17.45 13.35L17.45 13.35Q18.86 13.35 19.73 14.12Q20.59 14.89 20.73 16.29L20.73 16.29L19.25 16.29Q19.14 15.37 18.71 14.96Q18.28 14.55 17.45 14.55L17.45 14.55Q16.48 14.55 15.97 15.26Q15.45 15.96 15.44 17.33L15.44 17.33L15.44 18.09Q15.44 19.47 15.93 20.20Q16.43 20.92 17.38 20.92L17.38 20.92Q18.25 20.92 18.69 20.53Q19.13 20.14 19.25 19.22L19.25 19.22L20.73 19.22Q20.60 20.59 19.72 21.35Q18.84 22.12 17.38 22.12L17.38 22.12Q16.36 22.12 15.59 21.63Q14.81 21.15 14.39 20.26Q13.97 19.37 13.95 18.19ZM24.61 19.42L24.61 19.42L26.09 19.42Q26.09 20.15 26.57 20.55Q27.05 20.95 27.95 20.95L27.95 20.95Q28.72 20.95 29.11 20.63Q29.50 20.32 29.50 19.80L29.50 19.80Q29.50 19.24 29.10 18.94Q28.71 18.63 27.68 18.32Q26.64 18.01 26.04 17.63L26.04 17.63Q24.87 16.90 24.87 15.72L24.87 15.72Q24.87 14.69 25.71 14.02Q26.55 13.35 27.89 13.35L27.89 13.35Q28.78 13.35 29.48 13.68Q30.18 14.01 30.58 14.61Q30.98 15.22 30.98 15.96L30.98 15.96L29.50 15.96Q29.50 15.29 29.08 14.91Q28.66 14.54 27.88 14.54L27.88 14.54Q27.15 14.54 26.75 14.85Q26.35 15.16 26.35 15.71L26.35 15.71Q26.35 16.18 26.79 16.50Q27.22 16.81 28.22 17.10Q29.21 17.40 29.81 17.78Q30.42 18.16 30.70 18.65Q30.98 19.13 30.98 19.79L30.98 19.79Q30.98 20.86 30.16 21.49Q29.35 22.12 27.95 22.12L27.95 22.12Q27.02 22.12 26.24 21.77Q25.47 21.43 25.04 20.83Q24.61 20.22 24.61 19.42ZM34.84 19.42L34.84 19.42L36.32 19.42Q36.32 20.15 36.80 20.55Q37.28 20.95 38.18 20.95L38.18 20.95Q38.95 20.95 39.34 20.63Q39.73 20.32 39.73 19.80L39.73 19.80Q39.73 19.24 39.33 18.94Q38.94 18.63 37.91 18.32Q36.88 18.01 36.27 17.63L36.27 17.63Q35.10 16.90 35.10 15.72L35.10 15.72Q35.10 14.69 35.94 14.02Q36.78 13.35 38.12 13.35L38.12 13.35Q39.01 13.35 39.71 13.68Q40.41 14.01 40.81 14.61Q41.21 15.22 41.21 15.96L41.21 15.96L39.73 15.96Q39.73 15.29 39.31 14.91Q38.89 14.54 38.11 14.54L38.11 14.54Q37.39 14.54 36.98 14.85Q36.58 15.16 36.58 15.71L36.58 15.71Q36.58 16.18 37.02 16.50Q37.45 16.81 38.45 17.10Q39.44 17.40 40.05 17.78Q40.65 18.16 40.93 18.65Q41.21 19.13 41.21 19.79L41.21 19.79Q41.21 20.86 40.39 21.49Q39.58 22.12 38.18 22.12L38.18 22.12Q37.25 22.12 36.47 21.77Q35.70 21.43 35.27 20.83Q34.84 20.22 34.84 19.42Z" fill="#FFFFFF"/><path class="svg__text" d="M67.02 17.80L67.02 17.80Q67.02 16.54 67.62 15.54Q68.22 14.55 69.27 13.99Q70.32 13.43 71.64 13.43L71.64 13.43Q72.79 13.43 73.71 13.84Q74.64 14.25 75.25 15.02L75.25 15.02L73.74 16.39Q72.93 15.40 71.76 15.40L71.76 15.40Q71.07 15.40 70.54 15.70Q70.01 16 69.71 16.54Q69.42 17.09 69.42 17.80L69.42 17.80Q69.42 18.51 69.71 19.05Q70.01 19.60 70.54 19.90Q71.07 20.20 71.76 20.20L71.76 20.20Q72.93 20.20 73.74 19.22L73.74 19.22L75.25 20.58Q74.64 21.35 73.72 21.76Q72.79 22.17 71.64 22.17L71.64 22.17Q70.32 22.17 69.27 21.61Q68.22 21.05 67.62 20.05Q67.02 19.06 67.02 17.80ZM79.36 17.80L79.36 17.80Q79.36 16.55 79.96 15.55Q80.57 14.56 81.63 14.00Q82.69 13.43 84.02 13.43L84.02 13.43Q85.35 13.43 86.42 14.00Q87.48 14.56 88.09 15.55Q88.69 16.55 88.69 17.80L88.69 17.80Q88.69 19.05 88.09 20.04Q87.48 21.04 86.42 21.60Q85.36 22.17 84.02 22.17L84.02 22.17Q82.69 22.17 81.63 21.60Q80.57 21.04 79.96 20.04Q79.36 19.05 79.36 17.80ZM81.76 17.80L81.76 17.80Q81.76 18.51 82.06 19.05Q82.36 19.60 82.88 19.90Q83.39 20.20 84.02 20.20L84.02 20.20Q84.66 20.20 85.18 19.90Q85.69 19.60 85.99 19.05Q86.29 18.51 86.29 17.80L86.29 17.80Q86.29 17.09 85.99 16.54Q85.69 16 85.18 15.70Q84.66 15.40 84.02 15.40L84.02 15.40Q83.39 15.40 82.87 15.70Q82.36 16 82.06 16.54Q81.76 17.09 81.76 17.80ZM99.81 22L93.42 22L93.42 13.60L95.80 13.60L95.80 20.11L99.81 20.11L99.81 22ZM103.80 17.80L103.80 17.80Q103.80 16.55 104.40 15.55Q105.01 14.56 106.07 14.00Q107.13 13.43 108.46 13.43L108.46 13.43Q109.79 13.43 110.86 14.00Q111.92 14.56 112.53 15.55Q113.13 16.55 113.13 17.80L113.13 17.80Q113.13 19.05 112.53 20.04Q111.92 21.04 110.86 21.60Q109.80 22.17 108.46 22.17L108.46 22.17Q107.13 22.17 106.07 21.60Q105.01 21.04 104.40 20.04Q103.80 19.05 103.80 17.80ZM106.20 17.80L106.20 17.80Q106.20 18.51 106.50 19.05Q106.80 19.60 107.32 19.90Q107.83 20.20 108.46 20.20L108.46 20.20Q109.10 20.20 109.62 19.90Q110.13 19.60 110.43 19.05Q110.73 18.51 110.73 17.80L110.73 17.80Q110.73 17.09 110.43 16.54Q110.13 16 109.62 15.70Q109.10 15.40 108.46 15.40L108.46 15.40Q107.82 15.40 107.31 15.70Q106.80 16 106.50 16.54Q106.20 17.09 106.20 17.80ZM120.24 22L117.86 22L117.86 13.60L121.71 13.60Q122.85 13.60 123.69 13.98Q124.52 14.35 124.98 15.06Q125.44 15.76 125.44 16.71L125.44 16.71Q125.44 17.62 125.01 18.30Q124.58 18.98 123.79 19.36L123.79 19.36L125.60 22L123.06 22L121.54 19.77L120.24 19.77L120.24 22ZM120.24 15.47L120.24 17.93L121.56 17.93Q122.29 17.93 122.66 17.61Q123.04 17.29 123.04 16.71L123.04 16.71Q123.04 16.12 122.66 15.79Q122.29 15.47 121.56 15.47L121.56 15.47L120.24 15.47ZM129.64 21.24L129.64 21.24L130.42 19.49Q130.98 19.86 131.73 20.09Q132.47 20.32 133.19 20.32L133.19 20.32Q134.56 20.32 134.56 19.64L134.56 19.64Q134.56 19.28 134.17 19.11Q133.78 18.93 132.91 18.74L132.91 18.74Q131.97 18.53 131.33 18.30Q130.69 18.06 130.24 17.55Q129.79 17.03 129.79 16.16L129.79 16.16Q129.79 15.39 130.20 14.77Q130.62 14.15 131.46 13.79Q132.29 13.43 133.50 13.43L133.50 13.43Q134.33 13.43 135.13 13.62Q135.94 13.80 136.55 14.17L136.55 14.17L135.82 15.93Q134.62 15.28 133.49 15.28L133.49 15.28Q132.78 15.28 132.46 15.49Q132.14 15.70 132.14 16.04L132.14 16.04Q132.14 16.37 132.52 16.54Q132.90 16.71 133.75 16.89L133.75 16.89Q134.71 17.10 135.34 17.33Q135.97 17.56 136.44 18.07Q136.90 18.58 136.90 19.46L136.90 19.46Q136.90 20.21 136.48 20.83Q136.06 21.44 135.22 21.80Q134.38 22.17 133.18 22.17L133.18 22.17Q132.16 22.17 131.20 21.92Q130.24 21.67 129.64 21.24Z" fill="#FFFFFF" x="66.26"/></svg>