<svg xmlns="http://www.w3.org/2000/svg" width="140.76" height="35" viewBox="0 0 140.76 35"><rect class="svg__rect" x="0" y="0" width="63.410000000000004" height="35" fill="#78DBEF"/><rect class="svg__rect" x="61.410000000000004" y="0" width="79.35" height="35" fill="#29B2CF"/><path class="svg__text" d="M15.70 22L14.22 22L14.22 13.47L19.64 13.47L19.64 14.66L15.70 14.66L15.70 17.20L19.13 17.20L19.13 18.38L15.70 18.38L15.70 22ZM25.28 22L23.80 22L23.80 13.47L26.80 13.47Q28.27 13.47 29.08 14.13Q29.88 14.79 29.88 16.05L29.88 16.05Q29.88 16.90 29.47 17.48Q29.05 18.06 28.31 18.37L28.31 18.37L30.23 21.92L30.23 22L28.64 22L26.93 18.71L25.28 18.71L25.28 22ZM25.28 14.66L25.28 17.52L26.80 17.52Q27.55 17.52 27.98 17.15Q28.40 16.77 28.40 16.11L28.40 16.11Q28.40 15.43 28.01 15.05Q27.62 14.68 26.84 14.66L26.84 14.66L25.28 14.66ZM39.85 22L34.27 22L34.27 13.47L39.81 13.47L39.81 14.66L35.76 14.66L35.76 17.02L39.26 17.02L39.26 18.19L35.76 18.19L35.76 20.82L39.85 20.82L39.85 22ZM49.63 22L44.05 22L44.05 13.47L49.58 13.47L49.58 14.66L45.53 14.66L45.53 17.02L49.03 17.02L49.03 18.19L45.53 18.19L45.53 20.82L49.63 20.82L49.63 22Z" fill="#FFFFFF"/><path class="svg__text" d="M77.98 22L75.60 22L75.60 13.60L77.98 13.60L77.98 22ZM82.72 17.80L82.72 17.80Q82.72 16.54 83.32 15.54Q83.92 14.55 84.97 13.99Q86.02 13.43 87.34 13.43L87.34 13.43Q88.49 13.43 89.42 13.84Q90.34 14.25 90.96 15.02L90.96 15.02L89.44 16.39Q88.63 15.40 87.46 15.40L87.46 15.40Q86.78 15.40 86.24 15.70Q85.71 16 85.42 16.54Q85.12 17.09 85.12 17.80L85.12 17.80Q85.12 18.51 85.42 19.05Q85.71 19.60 86.24 19.90Q86.78 20.20 87.46 20.20L87.46 20.20Q88.63 20.20 89.44 19.22L89.44 19.22L90.96 20.58Q90.35 21.35 89.42 21.76Q88.49 22.17 87.34 22.17L87.34 22.17Q86.02 22.17 84.97 21.61Q83.92 21.05 83.32 20.05Q82.72 19.06 82.72 17.80ZM95.06 17.80L95.06 17.80Q95.06 16.55 95.67 15.55Q96.27 14.56 97.33 14.00Q98.40 13.43 99.73 13.43L99.73 13.43Q101.06 13.43 102.12 14.00Q103.18 14.56 103.79 15.55Q104.40 16.55 104.40 17.80L104.40 17.80Q104.40 19.05 103.79 20.04Q103.18 21.04 102.12 21.60Q101.06 22.17 99.73 22.17L99.73 22.17Q98.40 22.17 97.33 21.60Q96.27 21.04 95.67 20.04Q95.06 19.05 95.06 17.80ZM97.46 17.80L97.46 17.80Q97.46 18.51 97.76 19.05Q98.06 19.60 98.58 19.90Q99.09 20.20 99.73 20.20L99.73 20.20Q100.37 20.20 100.88 19.90Q101.40 19.60 101.70 19.05Q101.99 18.51 101.99 17.80L101.99 17.80Q101.99 17.09 101.70 16.54Q101.40 16 100.88 15.70Q100.37 15.40 99.73 15.40L99.73 15.40Q99.09 15.40 98.58 15.70Q98.06 16 97.76 16.54Q97.46 17.09 97.46 17.80ZM111.46 22L109.13 22L109.13 13.60L111.08 13.60L114.79 18.07L114.79 13.60L117.12 13.60L117.12 22L115.17 22L111.46 17.52L111.46 22ZM121.69 21.24L121.69 21.24L122.47 19.49Q123.04 19.86 123.78 20.09Q124.52 20.32 125.24 20.32L125.24 20.32Q126.61 20.32 126.62 19.64L126.62 19.64Q126.62 19.28 126.23 19.11Q125.84 18.93 124.97 18.74L124.97 18.74Q124.02 18.53 123.38 18.30Q122.75 18.06 122.29 17.55Q121.84 17.03 121.84 16.16L121.84 16.16Q121.84 15.39 122.26 14.77Q122.68 14.15 123.51 13.79Q124.35 13.43 125.55 13.43L125.55 13.43Q126.38 13.43 127.19 13.62Q127.99 13.80 128.61 14.17L128.61 14.17L127.88 15.93Q126.67 15.28 125.54 15.28L125.54 15.28Q124.83 15.28 124.51 15.49Q124.19 15.70 124.19 16.04L124.19 16.04Q124.19 16.37 124.57 16.54Q124.96 16.71 125.81 16.89L125.81 16.89Q126.77 17.10 127.40 17.33Q128.03 17.56 128.49 18.07Q128.95 18.58 128.95 19.46L128.95 19.46Q128.95 20.21 128.53 20.83Q128.12 21.44 127.27 21.80Q126.43 22.17 125.23 22.17L125.23 22.17Q124.21 22.17 123.25 21.92Q122.29 21.67 121.69 21.24Z" fill="#FFFFFF" x="74.41"/></svg>