<svg xmlns="http://www.w3.org/2000/svg" width="258.16" height="35" viewBox="0 0 258.16 35"><rect class="svg__rect" x="0" y="0" width="128.73000000000002" height="35" fill="#E95857"/><rect class="svg__rect" x="126.73" y="0" width="131.43" height="35" fill="#C13B3A"/><path class="svg__text" d="M13.97 18.13L13.97 18.13L13.97 17.46Q13.97 15.53 14.90 14.44Q15.82 13.35 17.48 13.35L17.48 13.35Q18.90 13.35 19.74 14.05Q20.58 14.76 20.75 16.08L20.75 16.08L19.30 16.08Q19.05 14.54 17.51 14.54L17.51 14.54Q16.51 14.54 16.00 15.26Q15.48 15.98 15.46 17.37L15.46 17.37L15.46 18.02Q15.46 19.40 16.04 20.17Q16.63 20.93 17.66 20.93L17.66 20.93Q18.80 20.93 19.28 20.42L19.28 20.42L19.28 18.75L17.52 18.75L17.52 17.62L20.76 17.62L20.76 20.89Q20.29 21.50 19.47 21.81Q18.65 22.12 17.61 22.12L17.61 22.12Q16.54 22.12 15.71 21.63Q14.89 21.14 14.44 20.24Q13.99 19.33 13.97 18.13ZM26.94 22L25.46 22L25.46 13.47L26.94 13.47L26.94 22ZM33.43 14.66L30.79 14.66L30.79 13.47L37.56 13.47L37.56 14.66L34.90 14.66L34.90 22L33.43 22L33.43 14.66ZM42.80 22L41.32 22L41.32 13.47L42.80 13.47L42.80 17.02L46.61 17.02L46.61 13.47L48.09 13.47L48.09 22L46.61 22L46.61 18.21L42.80 18.21L42.80 22ZM52.70 19.16L52.70 19.16L52.70 13.47L54.17 13.47L54.17 19.18Q54.17 20.03 54.61 20.48Q55.04 20.93 55.88 20.93L55.88 20.93Q57.59 20.93 57.59 19.13L57.59 19.13L57.59 13.47L59.07 13.47L59.07 19.17Q59.07 20.53 58.20 21.32Q57.33 22.12 55.88 22.12L55.88 22.12Q54.42 22.12 53.56 21.33Q52.70 20.55 52.70 19.16ZM66.75 22L63.64 22L63.64 13.47L66.56 13.47Q68.01 13.47 68.77 14.05Q69.52 14.63 69.52 15.78L69.52 15.78Q69.52 16.36 69.21 16.83Q68.89 17.30 68.28 17.56L68.28 17.56Q68.97 17.75 69.35 18.26Q69.73 18.78 69.73 19.51L69.73 19.51Q69.73 20.71 68.96 21.36Q68.19 22 66.75 22L66.75 22ZM65.12 18.15L65.12 20.82L66.77 20.82Q67.47 20.82 67.86 20.47Q68.25 20.13 68.25 19.51L68.25 19.51Q68.25 18.18 66.89 18.15L66.89 18.15L65.12 18.15ZM65.12 14.66L65.12 17.06L66.58 17.06Q67.27 17.06 67.66 16.75Q68.05 16.43 68.05 15.86L68.05 15.86Q68.05 15.23 67.69 14.95Q67.33 14.66 66.56 14.66L66.56 14.66L65.12 14.66ZM76.82 18.95L73.75 18.95L73.75 17.80L76.82 17.80L76.82 18.95ZM80.88 18.13L80.88 18.13L80.88 17.46Q80.88 15.53 81.81 14.44Q82.73 13.35 84.39 13.35L84.39 13.35Q85.81 13.35 86.65 14.05Q87.49 14.76 87.66 16.08L87.66 16.08L86.21 16.08Q85.96 14.54 84.42 14.54L84.42 14.54Q83.42 14.54 82.90 15.26Q82.39 15.98 82.37 17.37L82.37 17.37L82.37 18.02Q82.37 19.40 82.95 20.17Q83.53 20.93 84.57 20.93L84.57 20.93Q85.71 20.93 86.19 20.42L86.19 20.42L86.19 18.75L84.43 18.75L84.43 17.62L87.66 17.62L87.66 20.89Q87.20 21.50 86.38 21.81Q85.56 22.12 84.52 22.12L84.52 22.12Q83.45 22.12 82.62 21.63Q81.79 21.14 81.35 20.24Q80.90 19.33 80.88 18.13ZM93.85 22L92.37 22L92.37 13.47L93.85 13.47L93.85 22ZM98.22 19.42L98.22 19.42L99.71 19.42Q99.71 20.15 100.19 20.55Q100.67 20.95 101.56 20.95L101.56 20.95Q102.34 20.95 102.73 20.63Q103.12 20.32 103.12 19.80L103.12 19.80Q103.12 19.24 102.72 18.94Q102.32 18.63 101.29 18.32Q100.26 18.01 99.65 17.63L99.65 17.63Q98.49 16.90 98.49 15.72L98.49 15.72Q98.49 14.69 99.33 14.02Q100.17 13.35 101.51 13.35L101.51 13.35Q102.40 13.35 103.10 13.68Q103.80 14.01 104.19 14.61Q104.59 15.22 104.59 15.96L104.59 15.96L103.12 15.96Q103.12 15.29 102.70 14.91Q102.28 14.54 101.50 14.54L101.50 14.54Q100.77 14.54 100.37 14.85Q99.97 15.16 99.97 15.71L99.97 15.71Q99.97 16.18 100.40 16.50Q100.84 16.81 101.83 17.10Q102.83 17.40 103.43 17.78Q104.04 18.16 104.32 18.65Q104.60 19.13 104.60 19.79L104.60 19.79Q104.60 20.86 103.78 21.49Q102.96 22.12 101.56 22.12L101.56 22.12Q100.64 22.12 99.86 21.77Q99.08 21.43 98.65 20.83Q98.22 20.22 98.22 19.42ZM110.57 14.66L107.93 14.66L107.93 13.47L114.70 13.47L114.70 14.66L112.04 14.66L112.04 22L110.57 22L110.57 14.66Z" fill="#FFFFFF"/><path class="svg__text" d="M143.12 22L140.92 22L140.92 13.60L142.87 13.60L145.83 18.45L148.71 13.60L150.66 13.60L150.69 22L148.51 22L148.48 17.55L146.32 21.17L145.27 21.17L143.12 17.67L143.12 22ZM157.27 22L154.84 22L158.55 13.60L160.89 13.60L164.61 22L162.14 22L161.48 20.37L157.93 20.37L157.27 22ZM159.70 15.93L158.62 18.61L160.78 18.61L159.70 15.93ZM171.14 22L168.76 22L168.76 13.60L172.61 13.60Q173.75 13.60 174.59 13.98Q175.42 14.35 175.88 15.06Q176.34 15.76 176.34 16.71L176.34 16.71Q176.34 17.62 175.91 18.30Q175.48 18.98 174.69 19.36L174.69 19.36L176.50 22L173.96 22L172.44 19.77L171.14 19.77L171.14 22ZM171.14 15.47L171.14 17.93L172.46 17.93Q173.19 17.93 173.56 17.61Q173.94 17.29 173.94 16.71L173.94 16.71Q173.94 16.12 173.56 15.79Q173.19 15.47 172.46 15.47L172.46 15.47L171.14 15.47ZM183.48 22L181.12 22L181.12 13.60L183.48 13.60L183.48 17.09L186.73 13.60L189.35 13.60L185.92 17.32L189.53 22L186.77 22L184.37 18.95L183.48 19.90L183.48 22ZM197.61 22L193.63 22L193.63 13.60L197.61 13.60Q198.99 13.60 200.06 14.12Q201.12 14.63 201.71 15.58Q202.30 16.53 202.30 17.80L202.30 17.80Q202.30 19.07 201.71 20.02Q201.12 20.97 200.06 21.48Q198.99 22 197.61 22L197.61 22ZM196.01 15.50L196.01 20.10L197.51 20.10Q198.59 20.10 199.25 19.49Q199.90 18.88 199.90 17.80L199.90 17.80Q199.90 16.72 199.25 16.11Q198.59 15.50 197.51 15.50L197.51 15.50L196.01 15.50ZM206.60 17.80L206.60 17.80Q206.60 16.55 207.21 15.55Q207.81 14.56 208.87 14.00Q209.94 13.43 211.27 13.43L211.27 13.43Q212.60 13.43 213.66 14.00Q214.72 14.56 215.33 15.55Q215.94 16.55 215.94 17.80L215.94 17.80Q215.94 19.05 215.33 20.04Q214.72 21.04 213.66 21.60Q212.60 22.17 211.27 22.17L211.27 22.17Q209.94 22.17 208.87 21.60Q207.81 21.04 207.21 20.04Q206.60 19.05 206.60 17.80ZM209.00 17.80L209.00 17.80Q209.00 18.51 209.30 19.05Q209.60 19.60 210.12 19.90Q210.63 20.20 211.27 20.20L211.27 20.20Q211.90 20.20 212.42 19.90Q212.94 19.60 213.23 19.05Q213.53 18.51 213.53 17.80L213.53 17.80Q213.53 17.09 213.23 16.54Q212.94 16 212.42 15.70Q211.90 15.40 211.27 15.40L211.27 15.40Q210.63 15.40 210.11 15.70Q209.60 16 209.30 16.54Q209.00 17.09 209.00 17.80ZM222.74 22L220.02 13.60L222.47 13.60L224.16 18.96L225.93 13.60L228.12 13.60L229.81 19.01L231.57 13.60L233.84 13.60L231.12 22L228.57 22L226.97 16.89L225.29 22L222.74 22ZM240.69 22L238.35 22L238.35 13.60L240.31 13.60L244.02 18.07L244.02 13.60L246.35 13.60L246.35 22L244.39 22L240.69 17.52L240.69 22Z" fill="#FFFFFF" x="139.73000000000002"/></svg>