<svg xmlns="http://www.w3.org/2000/svg" width="121.26999999999998" height="35" viewBox="0 0 121.26999999999998 35"><rect class="svg__rect" x="0" y="0" width="75.6" height="35" fill="#FF6A69"/><rect class="svg__rect" x="73.6" y="0" width="47.66999999999999" height="35" fill="#DC3E3C"/><path class="svg__text" d="M13.97 18.13L13.97 18.13L13.97 17.46Q13.97 15.53 14.90 14.44Q15.82 13.35 17.48 13.35L17.48 13.35Q18.90 13.35 19.74 14.05Q20.58 14.76 20.75 16.08L20.75 16.08L19.30 16.08Q19.05 14.54 17.51 14.54L17.51 14.54Q16.51 14.54 16.00 15.26Q15.48 15.98 15.46 17.37L15.46 17.37L15.46 18.02Q15.46 19.40 16.04 20.17Q16.63 20.93 17.66 20.93L17.66 20.93Q18.80 20.93 19.28 20.42L19.28 20.42L19.28 18.75L17.52 18.75L17.52 17.62L20.76 17.62L20.76 20.89Q20.29 21.50 19.47 21.81Q18.65 22.12 17.61 22.12L17.61 22.12Q16.54 22.12 15.71 21.63Q14.89 21.14 14.44 20.24Q13.99 19.33 13.97 18.13ZM26.85 22L25.37 22L25.37 13.47L27.30 13.47L29.76 20.01L32.21 13.47L34.13 13.47L34.13 22L32.65 22L32.65 19.19L32.80 15.43L30.28 22L29.22 22L26.70 15.43L26.85 19.19L26.85 22ZM39.65 22L38.11 22L41.33 13.47L42.66 13.47L45.89 22L44.34 22L43.64 20.01L40.34 20.01L39.65 22ZM41.99 15.28L40.75 18.82L43.23 18.82L41.99 15.28ZM51.41 22L49.93 22L49.93 13.47L51.41 13.47L51.41 22ZM61.57 22L56.22 22L56.22 13.47L57.70 13.47L57.70 20.82L61.57 20.82L61.57 22Z" fill="#FFFFFF"/><path class="svg__text" d="M89.99 22L87.79 22L87.79 13.60L89.74 13.60L92.70 18.45L95.58 13.60L97.53 13.60L97.56 22L95.38 22L95.35 17.55L93.19 21.17L92.14 21.17L89.99 17.67L89.99 22ZM109.46 22L102.72 22L102.72 13.60L109.31 13.60L109.31 15.44L105.07 15.44L105.07 16.85L108.81 16.85L108.81 18.63L105.07 18.63L105.07 20.17L109.46 20.17L109.46 22Z" fill="#FFFFFF" x="86.6"/></svg>