<svg xmlns="http://www.w3.org/2000/svg" width="259.71999999999997" height="35" viewBox="0 0 259.71999999999997 35"><rect class="svg__rect" x="0" y="0" width="117.92" height="35" fill="#F2778B"/><rect class="svg__rect" x="115.92" y="0" width="143.79999999999998" height="35" fill="#CC435A"/><path class="svg__text" d="M15.78 22L14.31 22L14.31 13.47L15.78 13.47L15.78 22ZM22.07 22L20.59 22L20.59 13.47L22.07 13.47L25.89 19.54L25.89 13.47L27.36 13.47L27.36 22L25.88 22L22.07 15.95L22.07 22ZM31.67 19.42L31.67 19.42L33.15 19.42Q33.15 20.15 33.63 20.55Q34.11 20.95 35.01 20.95L35.01 20.95Q35.78 20.95 36.17 20.63Q36.56 20.32 36.56 19.80L36.56 19.80Q36.56 19.24 36.16 18.94Q35.77 18.63 34.74 18.32Q33.71 18.01 33.10 17.63L33.10 17.63Q31.93 16.90 31.93 15.72L31.93 15.72Q31.93 14.69 32.77 14.02Q33.61 13.35 34.95 13.35L34.95 13.35Q35.84 13.35 36.54 13.68Q37.24 14.01 37.64 14.61Q38.04 15.22 38.04 15.96L38.04 15.96L36.56 15.96Q36.56 15.29 36.14 14.91Q35.72 14.54 34.94 14.54L34.94 14.54Q34.22 14.54 33.81 14.85Q33.41 15.16 33.41 15.71L33.41 15.71Q33.41 16.18 33.85 16.50Q34.28 16.81 35.28 17.10Q36.27 17.40 36.88 17.78Q37.48 18.16 37.76 18.65Q38.04 19.13 38.04 19.79L38.04 19.79Q38.04 20.86 37.22 21.49Q36.41 22.12 35.01 22.12L35.01 22.12Q34.08 22.12 33.30 21.77Q32.53 21.43 32.10 20.83Q31.67 20.22 31.67 19.42ZM44.01 14.66L41.38 14.66L41.38 13.47L48.14 13.47L48.14 14.66L45.48 14.66L45.48 22L44.01 22L44.01 14.66ZM52.68 22L51.14 22L54.36 13.47L55.69 13.47L58.92 22L57.37 22L56.67 20.01L53.37 20.01L52.68 22ZM55.02 15.28L53.79 18.82L56.26 18.82L55.02 15.28ZM62.63 18.13L62.63 18.13L62.63 17.46Q62.63 15.53 63.55 14.44Q64.48 13.35 66.14 13.35L66.14 13.35Q67.56 13.35 68.40 14.05Q69.24 14.76 69.41 16.08L69.41 16.08L67.95 16.08Q67.71 14.54 66.17 14.54L66.17 14.54Q65.17 14.54 64.65 15.26Q64.13 15.98 64.12 17.37L64.12 17.37L64.12 18.02Q64.12 19.40 64.70 20.17Q65.28 20.93 66.32 20.93L66.32 20.93Q67.46 20.93 67.94 20.42L67.94 20.42L67.94 18.75L66.18 18.75L66.18 17.62L69.41 17.62L69.41 20.89Q68.95 21.50 68.13 21.81Q67.31 22.12 66.27 22.12L66.27 22.12Q65.19 22.12 64.37 21.63Q63.54 21.14 63.09 20.24Q62.64 19.33 62.63 18.13ZM75.51 22L74.03 22L74.03 13.47L77.03 13.47Q78.51 13.47 79.31 14.13Q80.11 14.79 80.11 16.05L80.11 16.05Q80.11 16.90 79.70 17.48Q79.29 18.06 78.55 18.37L78.55 18.37L80.46 21.92L80.46 22L78.88 22L77.16 18.71L75.51 18.71L75.51 22ZM75.51 14.66L75.51 17.52L77.04 17.52Q77.79 17.52 78.21 17.15Q78.63 16.77 78.63 16.11L78.63 16.11Q78.63 15.43 78.24 15.05Q77.85 14.68 77.08 14.66L77.08 14.66L75.51 14.66ZM85.29 22L83.74 22L86.97 13.47L88.30 13.47L91.53 22L89.98 22L89.28 20.01L85.98 20.01L85.29 22ZM87.63 15.28L86.39 18.82L88.87 18.82L87.63 15.28ZM96.96 22L95.48 22L95.48 13.47L97.40 13.47L99.86 20.01L102.32 13.47L104.23 13.47L104.23 22L102.76 22L102.76 19.19L102.90 15.43L100.39 22L99.32 22L96.81 15.43L96.96 19.19L96.96 22Z" fill="#FFFFFF"/><path class="svg__text" d="M132.49 22L130.11 22L130.11 13.60L133.95 13.60Q135.09 13.60 135.93 13.98Q136.77 14.35 137.23 15.06Q137.68 15.76 137.68 16.71L137.68 16.71Q137.68 17.66 137.23 18.35Q136.77 19.05 135.93 19.42Q135.09 19.80 133.95 19.80L133.95 19.80L132.49 19.80L132.49 22ZM132.49 15.47L132.49 17.93L133.81 17.93Q134.54 17.93 134.91 17.61Q135.28 17.29 135.28 16.71L135.28 16.71Q135.28 16.12 134.91 15.80Q134.54 15.47 133.81 15.47L133.81 15.47L132.49 15.47ZM142.01 17.80L142.01 17.80Q142.01 16.55 142.61 15.55Q143.22 14.56 144.28 14.00Q145.34 13.43 146.67 13.43L146.67 13.43Q148.00 13.43 149.07 14.00Q150.13 14.56 150.74 15.55Q151.34 16.55 151.34 17.80L151.34 17.80Q151.34 19.05 150.74 20.04Q150.13 21.04 149.07 21.60Q148.01 22.17 146.67 22.17L146.67 22.17Q145.34 22.17 144.28 21.60Q143.22 21.04 142.61 20.04Q142.01 19.05 142.01 17.80ZM144.40 17.80L144.40 17.80Q144.40 18.51 144.71 19.05Q145.01 19.60 145.52 19.90Q146.04 20.20 146.67 20.20L146.67 20.20Q147.31 20.20 147.83 19.90Q148.34 19.60 148.64 19.05Q148.94 18.51 148.94 17.80L148.94 17.80Q148.94 17.09 148.64 16.54Q148.34 16 147.83 15.70Q147.31 15.40 146.67 15.40L146.67 15.40Q146.03 15.40 145.52 15.70Q145.01 16 144.71 16.54Q144.40 17.09 144.40 17.80ZM162.46 22L156.07 22L156.07 13.60L158.45 13.60L158.45 20.11L162.46 20.11L162.46 22ZM169.00 18.95L165.80 13.60L168.31 13.60L170.30 16.94L172.29 13.60L174.59 13.60L171.38 18.99L171.38 22L169.00 22L169.00 18.95ZM180.09 22L177.67 22L181.38 13.60L183.72 13.60L187.44 22L184.97 22L184.31 20.37L180.76 20.37L180.09 22ZM182.53 15.93L181.45 18.61L183.61 18.61L182.53 15.93ZM193.97 22L191.59 22L191.59 13.60L195.43 13.60Q196.57 13.60 197.41 13.98Q198.25 14.35 198.71 15.06Q199.17 15.76 199.17 16.71L199.17 16.71Q199.17 17.66 198.71 18.35Q198.25 19.05 197.41 19.42Q196.57 19.80 195.43 19.80L195.43 19.80L193.97 19.80L193.97 22ZM193.97 15.47L193.97 17.93L195.29 17.93Q196.02 17.93 196.39 17.61Q196.76 17.29 196.76 16.71L196.76 16.71Q196.76 16.12 196.39 15.80Q196.02 15.47 195.29 15.47L195.29 15.47L193.97 15.47ZM210.66 22L203.92 22L203.92 13.60L210.51 13.60L210.51 15.44L206.27 15.44L206.27 16.85L210.01 16.85L210.01 18.63L206.27 18.63L206.27 20.17L210.66 20.17L210.66 22ZM217.85 22L215.47 22L215.47 13.60L219.31 13.60Q220.45 13.60 221.29 13.98Q222.13 14.35 222.59 15.06Q223.04 15.76 223.04 16.71L223.04 16.71Q223.04 17.62 222.62 18.30Q222.19 18.98 221.40 19.36L221.40 19.36L223.21 22L220.66 22L219.14 19.77L217.85 19.77L217.85 22ZM217.85 15.47L217.85 17.93L219.16 17.93Q219.90 17.93 220.27 17.61Q220.64 17.29 220.64 16.71L220.64 16.71Q220.64 16.12 220.27 15.79Q219.90 15.47 219.16 15.47L219.16 15.47L217.85 15.47ZM230.21 22L227.83 22L227.83 13.60L231.67 13.60Q232.82 13.60 233.65 13.98Q234.49 14.35 234.95 15.06Q235.41 15.76 235.41 16.71L235.41 16.71Q235.41 17.62 234.98 18.30Q234.55 18.98 233.76 19.36L233.76 19.36L235.57 22L233.03 22L231.50 19.77L230.21 19.77L230.21 22ZM230.21 15.47L230.21 17.93L231.53 17.93Q232.26 17.93 232.63 17.61Q233.00 17.29 233.00 16.71L233.00 16.71Q233.00 16.12 232.63 15.79Q232.26 15.47 231.53 15.47L231.53 15.47L230.21 15.47ZM242.32 18.95L239.12 13.60L241.62 13.60L243.62 16.94L245.61 13.60L247.91 13.60L244.69 18.99L244.69 22L242.32 22L242.32 18.95Z" fill="#FFFFFF" x="128.92000000000002"/></svg>