<svg xmlns="http://www.w3.org/2000/svg" width="193.65999999999997" height="35" viewBox="0 0 193.65999999999997 35"><rect class="svg__rect" x="0" y="0" width="115.91" height="35" fill="#808080"/><rect class="svg__rect" x="113.91" y="0" width="79.74999999999999" height="35" fill="#595454"/><path class="svg__text" d="M15.69 22L14.22 22L14.22 13.47L16.14 13.47L18.60 20.01L21.06 13.47L22.97 13.47L22.97 22L21.49 22L21.49 19.19L21.64 15.43L19.12 22L18.06 22L15.55 15.43L15.69 19.19L15.69 22ZM28.49 22L26.95 22L30.17 13.47L31.50 13.47L34.73 22L33.18 22L32.49 20.01L29.18 20.01L28.49 22ZM30.83 15.28L29.60 18.82L32.07 18.82L30.83 15.28ZM40.17 22L38.69 22L38.69 13.47L41.69 13.47Q43.16 13.47 43.97 14.13Q44.77 14.79 44.77 16.05L44.77 16.05Q44.77 16.90 44.35 17.48Q43.94 18.06 43.20 18.37L43.20 18.37L45.12 21.92L45.12 22L43.53 22L41.82 18.71L40.17 18.71L40.17 22ZM40.17 14.66L40.17 17.52L41.69 17.52Q42.44 17.52 42.86 17.15Q43.29 16.77 43.29 16.11L43.29 16.11Q43.29 15.43 42.90 15.05Q42.51 14.68 41.73 14.66L41.73 14.66L40.17 14.66ZM50.64 22L49.16 22L49.16 13.47L50.64 13.47L50.64 17.47L51.47 16.46L53.96 13.47L55.75 13.47L52.58 17.25L55.94 22L54.18 22L51.61 18.31L50.64 19.34L50.64 22ZM62.17 22L59.72 22L59.72 13.47L62.23 13.47Q63.37 13.47 64.24 13.97Q65.12 14.48 65.60 15.40Q66.08 16.33 66.08 17.52L66.08 17.52L66.08 17.95Q66.08 19.16 65.60 20.08Q65.11 21.00 64.22 21.50Q63.32 22 62.17 22L62.17 22ZM61.20 14.66L61.20 20.82L62.16 20.82Q63.33 20.82 63.95 20.09Q64.58 19.36 64.59 17.99L64.59 17.99L64.59 17.52Q64.59 16.13 63.99 15.40Q63.38 14.66 62.23 14.66L62.23 14.66L61.20 14.66ZM70.27 18.00L70.27 18.00L70.27 17.52Q70.27 16.28 70.72 15.32Q71.16 14.37 71.96 13.86Q72.77 13.35 73.81 13.35Q74.86 13.35 75.66 13.85Q76.47 14.35 76.91 15.29Q77.35 16.23 77.35 17.48L77.35 17.48L77.35 17.96Q77.35 19.21 76.92 20.16Q76.48 21.10 75.68 21.61Q74.87 22.12 73.82 22.12L73.82 22.12Q72.79 22.12 71.98 21.61Q71.16 21.10 70.72 20.17Q70.28 19.23 70.27 18.00ZM71.76 17.46L71.76 17.96Q71.76 19.36 72.30 20.13Q72.85 20.90 73.82 20.90L73.82 20.90Q74.81 20.90 75.34 20.15Q75.87 19.40 75.87 17.96L75.87 17.96L75.87 17.51Q75.87 16.09 75.33 15.34Q74.80 14.58 73.81 14.58L73.81 14.58Q72.85 14.58 72.31 15.33Q71.77 16.09 71.76 17.46L71.76 17.46ZM83.20 22L81.23 13.47L82.70 13.47L84.03 19.88L85.65 13.47L86.90 13.47L88.51 19.89L89.82 13.47L91.29 13.47L89.32 22L87.90 22L86.28 15.77L84.62 22L83.20 22ZM96.85 22L95.36 22L95.36 13.47L96.85 13.47L100.66 19.54L100.66 13.47L102.13 13.47L102.13 22L100.65 22L96.85 15.95L96.85 22Z" fill="#FFFFFF"/><path class="svg__text" d="M127.67 17.80L127.67 17.80Q127.67 16.54 128.27 15.54Q128.87 14.55 129.93 13.99Q131.00 13.43 132.35 13.43L132.35 13.43Q133.52 13.43 134.46 13.83Q135.40 14.22 136.02 14.97L136.02 14.97L134.51 16.33Q133.66 15.40 132.49 15.40L132.49 15.40Q132.47 15.40 132.47 15.40L132.47 15.40Q131.39 15.40 130.73 16.06Q130.07 16.71 130.07 17.80L130.07 17.80Q130.07 18.50 130.37 19.04Q130.67 19.59 131.21 19.89Q131.75 20.20 132.45 20.20L132.45 20.20Q133.13 20.20 133.73 19.93L133.73 19.93L133.73 17.62L135.83 17.62L135.83 21.10Q135.11 21.61 134.17 21.89Q133.24 22.17 132.30 22.17L132.30 22.17Q130.98 22.17 129.92 21.61Q128.87 21.05 128.27 20.05Q127.67 19.06 127.67 17.80ZM140.75 18.26L140.75 18.26L140.75 13.60L143.13 13.60L143.13 18.19Q143.13 20.20 144.72 20.20L144.72 20.20Q146.30 20.20 146.30 18.19L146.30 18.19L146.30 13.60L148.65 13.60L148.65 18.26Q148.65 20.13 147.61 21.15Q146.57 22.17 144.70 22.17L144.70 22.17Q142.82 22.17 141.79 21.15Q140.75 20.13 140.75 18.26ZM156.11 22L153.73 22L153.73 13.60L156.11 13.60L156.11 22ZM165.26 22L161.29 22L161.29 13.60L165.26 13.60Q166.64 13.60 167.71 14.12Q168.77 14.63 169.36 15.58Q169.95 16.53 169.95 17.80L169.95 17.80Q169.95 19.07 169.36 20.02Q168.77 20.97 167.71 21.48Q166.64 22 165.26 22L165.26 22ZM163.66 15.50L163.66 20.10L165.16 20.10Q166.24 20.10 166.90 19.49Q167.55 18.88 167.55 17.80L167.55 17.80Q167.55 16.72 166.90 16.11Q166.24 15.50 165.16 15.50L165.16 15.50L163.66 15.50ZM181.42 22L174.68 22L174.68 13.60L181.27 13.60L181.27 15.44L177.04 15.44L177.04 16.85L180.77 16.85L180.77 18.63L177.04 18.63L177.04 20.17L181.42 20.17L181.42 22Z" fill="#FFFFFF" x="126.91"/></svg>