<svg xmlns="http://www.w3.org/2000/svg" width="211.5" height="35" viewBox="0 0 211.5 35"><rect class="svg__rect" x="0" y="0" width="108.25" height="35" fill="#78DBEF"/><rect class="svg__rect" x="106.25" y="0" width="105.24999999999999" height="35" fill="#29B2CF"/><path class="svg__text" d="M15.70 22L14.22 22L14.22 13.47L17.48 13.47Q18.91 13.47 19.75 14.21Q20.59 14.96 20.59 16.18L20.59 16.18Q20.59 17.44 19.77 18.13Q18.95 18.83 17.46 18.83L17.46 18.83L15.70 18.83L15.70 22ZM15.70 14.66L15.70 17.64L17.48 17.64Q18.27 17.64 18.69 17.27Q19.10 16.90 19.10 16.19L19.10 16.19Q19.10 15.50 18.68 15.09Q18.26 14.68 17.52 14.66L17.52 14.66L15.70 14.66ZM30.45 22L24.88 22L24.88 13.47L30.41 13.47L30.41 14.66L26.36 14.66L26.36 17.02L29.86 17.02L29.86 18.19L26.36 18.19L26.36 20.82L30.45 20.82L30.45 22ZM36.13 22L34.65 22L34.65 13.47L37.65 13.47Q39.13 13.47 39.93 14.13Q40.73 14.79 40.73 16.05L40.73 16.05Q40.73 16.90 40.32 17.48Q39.90 18.06 39.17 18.37L39.17 18.37L41.08 21.92L41.08 22L39.49 22L37.78 18.71L36.13 18.71L36.13 22ZM36.13 14.66L36.13 17.52L37.65 17.52Q38.40 17.52 38.83 17.15Q39.25 16.77 39.25 16.11L39.25 16.11Q39.25 15.43 38.86 15.05Q38.47 14.68 37.70 14.66L37.70 14.66L36.13 14.66ZM44.69 19.42L44.69 19.42L46.17 19.42Q46.17 20.15 46.65 20.55Q47.14 20.95 48.03 20.95L48.03 20.95Q48.81 20.95 49.19 20.63Q49.58 20.32 49.58 19.80L49.58 19.80Q49.58 19.24 49.19 18.94Q48.79 18.63 47.76 18.32Q46.73 18.01 46.12 17.63L46.12 17.63Q44.96 16.90 44.96 15.72L44.96 15.72Q44.96 14.69 45.80 14.02Q46.64 13.35 47.98 13.35L47.98 13.35Q48.87 13.35 49.57 13.68Q50.26 14.01 50.66 14.61Q51.06 15.22 51.06 15.96L51.06 15.96L49.58 15.96Q49.58 15.29 49.17 14.91Q48.75 14.54 47.97 14.54L47.97 14.54Q47.24 14.54 46.84 14.85Q46.44 15.16 46.44 15.71L46.44 15.71Q46.44 16.18 46.87 16.50Q47.31 16.81 48.30 17.10Q49.30 17.40 49.90 17.78Q50.50 18.16 50.79 18.65Q51.07 19.13 51.07 19.79L51.07 19.79Q51.07 20.86 50.25 21.49Q49.43 22.12 48.03 22.12L48.03 22.12Q47.11 22.12 46.33 21.77Q45.55 21.43 45.12 20.83Q44.69 20.22 44.69 19.42ZM55.09 18.00L55.09 18.00L55.09 17.52Q55.09 16.28 55.53 15.32Q55.97 14.37 56.78 13.86Q57.58 13.35 58.63 13.35Q59.67 13.35 60.47 13.85Q61.28 14.35 61.72 15.29Q62.16 16.23 62.16 17.48L62.16 17.48L62.16 17.96Q62.16 19.21 61.73 20.16Q61.30 21.10 60.49 21.61Q59.69 22.12 58.64 22.12L58.64 22.12Q57.60 22.12 56.79 21.61Q55.98 21.10 55.53 20.17Q55.09 19.23 55.09 18.00ZM56.57 17.46L56.57 17.96Q56.57 19.36 57.12 20.13Q57.66 20.90 58.64 20.90L58.64 20.90Q59.62 20.90 60.15 20.15Q60.68 19.40 60.68 17.96L60.68 17.96L60.68 17.51Q60.68 16.09 60.15 15.34Q59.61 14.58 58.63 14.58L58.63 14.58Q57.66 14.58 57.12 15.33Q56.58 16.09 56.57 17.46L56.57 17.46ZM68.11 22L66.63 22L66.63 13.47L68.11 13.47L71.93 19.54L71.93 13.47L73.40 13.47L73.40 22L71.91 22L68.11 15.95L68.11 22ZM78.92 22L77.38 22L80.60 13.47L81.93 13.47L85.16 22L83.61 22L82.91 20.01L79.61 20.01L78.92 22ZM81.26 15.28L80.02 18.82L82.50 18.82L81.26 15.28ZM94.47 22L89.11 22L89.11 13.47L90.59 13.47L90.59 20.82L94.47 20.82L94.47 22Z" fill="#FFFFFF"/><path class="svg__text" d="M122.52 22L119.79 13.60L122.24 13.60L123.93 18.96L125.71 13.60L127.89 13.60L129.58 19.01L131.35 13.60L133.62 13.60L130.89 22L128.35 22L126.74 16.89L125.06 22L122.52 22ZM144.87 22L138.13 22L138.13 13.60L144.72 13.60L144.72 15.44L140.48 15.44L140.48 16.85L144.22 16.85L144.22 18.63L140.48 18.63L140.48 20.17L144.87 20.17L144.87 22ZM154.22 22L149.68 22L149.68 13.60L153.98 13.60Q155.58 13.60 156.42 14.19Q157.26 14.79 157.26 15.79L157.26 15.79Q157.26 16.39 156.97 16.87Q156.67 17.34 156.13 17.62L156.13 17.62Q156.85 17.87 157.26 18.41Q157.67 18.94 157.67 19.70L157.67 19.70Q157.67 20.80 156.78 21.40Q155.89 22 154.22 22L154.22 22ZM152.03 18.58L152.03 20.28L154.02 20.28Q155.27 20.28 155.27 19.43L155.27 19.43Q155.27 18.58 154.02 18.58L154.02 18.58L152.03 18.58ZM152.03 15.31L152.03 16.94L153.66 16.94Q154.86 16.94 154.86 16.12L154.86 16.12Q154.86 15.31 153.66 15.31L153.66 15.31L152.03 15.31ZM161.80 21.24L161.80 21.24L162.58 19.49Q163.14 19.86 163.89 20.09Q164.63 20.32 165.35 20.32L165.35 20.32Q166.72 20.32 166.72 19.64L166.72 19.64Q166.72 19.28 166.33 19.11Q165.94 18.93 165.07 18.74L165.07 18.74Q164.13 18.53 163.49 18.30Q162.85 18.06 162.40 17.55Q161.95 17.03 161.95 16.16L161.95 16.16Q161.95 15.39 162.36 14.77Q162.78 14.15 163.62 13.79Q164.45 13.43 165.66 13.43L165.66 13.43Q166.49 13.43 167.29 13.62Q168.10 13.80 168.71 14.17L168.71 14.17L167.98 15.93Q166.78 15.28 165.65 15.28L165.65 15.28Q164.94 15.28 164.62 15.49Q164.30 15.70 164.30 16.04L164.30 16.04Q164.30 16.37 164.68 16.54Q165.06 16.71 165.91 16.89L165.91 16.89Q166.87 17.10 167.50 17.33Q168.13 17.56 168.60 18.07Q169.06 18.58 169.06 19.46L169.06 19.46Q169.06 20.21 168.64 20.83Q168.22 21.44 167.38 21.80Q166.54 22.17 165.34 22.17L165.34 22.17Q164.32 22.17 163.36 21.92Q162.40 21.67 161.80 21.24ZM176.01 22L173.64 22L173.64 13.60L176.01 13.60L176.01 22ZM182.98 15.48L180.40 15.48L180.40 13.60L187.92 13.60L187.92 15.48L185.35 15.48L185.35 22L182.98 22L182.98 15.48ZM199.04 22L192.29 22L192.29 13.60L198.88 13.60L198.88 15.44L194.65 15.44L194.65 16.85L198.38 16.85L198.38 18.63L194.65 18.63L194.65 20.17L199.04 20.17L199.04 22Z" fill="#FFFFFF" x="119.25"/></svg>