<svg xmlns="http://www.w3.org/2000/svg" width="161.6" height="35" viewBox="0 0 161.6 35"><rect class="svg__rect" x="0" y="0" width="84.25" height="35" fill="#8FC965"/><rect class="svg__rect" x="82.25" y="0" width="79.35" height="35" fill="#5D9741"/><path class="svg__text" d="M13.78 19.42L13.78 19.42L15.27 19.42Q15.27 20.15 15.75 20.55Q16.23 20.95 17.12 20.95L17.12 20.95Q17.90 20.95 18.29 20.63Q18.68 20.32 18.68 19.80L18.68 19.80Q18.68 19.24 18.28 18.94Q17.89 18.63 16.85 18.32Q15.82 18.01 15.21 17.63L15.21 17.63Q14.05 16.90 14.05 15.72L14.05 15.72Q14.05 14.69 14.89 14.02Q15.73 13.35 17.07 13.35L17.07 13.35Q17.96 13.35 18.66 13.68Q19.36 14.01 19.75 14.61Q20.15 15.22 20.15 15.96L20.15 15.96L18.68 15.96Q18.68 15.29 18.26 14.91Q17.84 14.54 17.06 14.54L17.06 14.54Q16.33 14.54 15.93 14.85Q15.53 15.16 15.53 15.71L15.53 15.71Q15.53 16.18 15.96 16.50Q16.40 16.81 17.39 17.10Q18.39 17.40 18.99 17.78Q19.60 18.16 19.88 18.65Q20.16 19.13 20.16 19.79L20.16 19.79Q20.16 20.86 19.34 21.49Q18.52 22.12 17.12 22.12L17.12 22.12Q16.20 22.12 15.42 21.77Q14.64 21.43 14.21 20.83Q13.78 20.22 13.78 19.42ZM26.01 22L24.54 22L24.54 13.47L26.01 13.47L26.01 22ZM32.30 22L30.82 22L30.82 13.47L32.74 13.47L35.21 20.01L37.66 13.47L39.58 13.47L39.58 22L38.10 22L38.10 19.19L38.25 15.43L35.73 22L34.67 22L32.15 15.43L32.30 19.19L32.30 22ZM45.80 22L44.32 22L44.32 13.47L47.58 13.47Q49.01 13.47 49.85 14.21Q50.69 14.96 50.69 16.18L50.69 16.18Q50.69 17.44 49.87 18.13Q49.05 18.83 47.56 18.83L47.56 18.83L45.80 18.83L45.80 22ZM45.80 14.66L45.80 17.64L47.58 17.64Q48.37 17.64 48.79 17.27Q49.20 16.90 49.20 16.19L49.20 16.19Q49.20 15.50 48.78 15.09Q48.36 14.68 47.62 14.66L47.62 14.66L45.80 14.66ZM60.33 22L54.98 22L54.98 13.47L56.46 13.47L56.46 20.82L60.33 20.82L60.33 22ZM70.03 22L64.46 22L64.46 13.47L69.99 13.47L69.99 14.66L65.94 14.66L65.94 17.02L69.44 17.02L69.44 18.19L65.94 18.19L65.94 20.82L70.03 20.82L70.03 22Z" fill="#FFFFFF"/><path class="svg__text" d="M98.82 22L96.44 22L96.44 13.60L98.82 13.60L98.82 22ZM103.56 17.80L103.56 17.80Q103.56 16.54 104.16 15.54Q104.76 14.55 105.81 13.99Q106.86 13.43 108.18 13.43L108.18 13.43Q109.33 13.43 110.26 13.84Q111.18 14.25 111.80 15.02L111.80 15.02L110.28 16.39Q109.47 15.40 108.30 15.40L108.30 15.40Q107.62 15.40 107.08 15.70Q106.55 16 106.26 16.54Q105.96 17.09 105.96 17.80L105.96 17.80Q105.96 18.51 106.26 19.05Q106.55 19.60 107.08 19.90Q107.62 20.20 108.30 20.20L108.30 20.20Q109.47 20.20 110.28 19.22L110.28 19.22L111.80 20.58Q111.19 21.35 110.26 21.76Q109.33 22.17 108.18 22.17L108.18 22.17Q106.86 22.17 105.81 21.61Q104.76 21.05 104.16 20.05Q103.56 19.06 103.56 17.80ZM115.90 17.80L115.90 17.80Q115.90 16.55 116.51 15.55Q117.11 14.56 118.17 14.00Q119.24 13.43 120.57 13.43L120.57 13.43Q121.90 13.43 122.96 14.00Q124.02 14.56 124.63 15.55Q125.24 16.55 125.24 17.80L125.24 17.80Q125.24 19.05 124.63 20.04Q124.02 21.04 122.96 21.60Q121.90 22.17 120.57 22.17L120.57 22.17Q119.24 22.17 118.17 21.60Q117.11 21.04 116.51 20.04Q115.90 19.05 115.90 17.80ZM118.30 17.80L118.30 17.80Q118.30 18.51 118.60 19.05Q118.90 19.60 119.42 19.90Q119.93 20.20 120.57 20.20L120.57 20.20Q121.21 20.20 121.72 19.90Q122.24 19.60 122.54 19.05Q122.83 18.51 122.83 17.80L122.83 17.80Q122.83 17.09 122.54 16.54Q122.24 16 121.72 15.70Q121.21 15.40 120.57 15.40L120.57 15.40Q119.93 15.40 119.42 15.70Q118.90 16 118.60 16.54Q118.30 17.09 118.30 17.80ZM132.30 22L129.97 22L129.97 13.60L131.92 13.60L135.63 18.07L135.63 13.60L137.96 13.60L137.96 22L136.01 22L132.30 17.52L132.30 22ZM142.53 21.24L142.53 21.24L143.31 19.49Q143.88 19.86 144.62 20.09Q145.36 20.32 146.08 20.32L146.08 20.32Q147.45 20.32 147.46 19.64L147.46 19.64Q147.46 19.28 147.07 19.11Q146.68 18.93 145.81 18.74L145.81 18.74Q144.86 18.53 144.22 18.30Q143.59 18.06 143.13 17.55Q142.68 17.03 142.68 16.16L142.68 16.16Q142.68 15.39 143.10 14.77Q143.52 14.15 144.35 13.79Q145.19 13.43 146.39 13.43L146.39 13.43Q147.22 13.43 148.03 13.62Q148.83 13.80 149.45 14.17L149.45 14.17L148.72 15.93Q147.51 15.28 146.38 15.28L146.38 15.28Q145.67 15.28 145.35 15.49Q145.03 15.70 145.03 16.04L145.03 16.04Q145.03 16.37 145.41 16.54Q145.80 16.71 146.65 16.89L146.65 16.89Q147.61 17.10 148.24 17.33Q148.87 17.56 149.33 18.07Q149.79 18.58 149.79 19.46L149.79 19.46Q149.79 20.21 149.37 20.83Q148.96 21.44 148.11 21.80Q147.27 22.17 146.07 22.17L146.07 22.17Q145.05 22.17 144.09 21.92Q143.13 21.67 142.53 21.24Z" fill="#FFFFFF" x="95.25"/></svg>