<svg xmlns="http://www.w3.org/2000/svg" width="158.1" height="35" viewBox="0 0 158.1 35"><rect class="svg__rect" x="0" y="0" width="112.43" height="35" fill="#8FC965"/><rect class="svg__rect" x="110.43" y="0" width="47.66999999999999" height="35" fill="#689945"/><path class="svg__text" d="M15.60 22L13.63 13.47L15.10 13.47L16.43 19.88L18.06 13.47L19.30 13.47L20.91 19.89L22.22 13.47L23.69 13.47L21.72 22L20.31 22L18.68 15.77L17.02 22L15.60 22ZM29.25 22L27.76 22L27.76 13.47L29.25 13.47L29.25 17.02L33.06 17.02L33.06 13.47L34.54 13.47L34.54 22L33.06 22L33.06 18.21L29.25 18.21L29.25 22ZM40.06 22L38.52 22L41.74 13.47L43.07 13.47L46.30 22L44.75 22L44.05 20.01L40.75 20.01L40.06 22ZM42.40 15.28L41.16 18.82L43.64 18.82L42.40 15.28ZM51.93 14.66L49.30 14.66L49.30 13.47L56.06 13.47L56.06 14.66L53.40 14.66L53.40 22L51.93 22L51.93 14.66ZM59.39 19.42L59.39 19.42L60.87 19.42Q60.87 20.15 61.35 20.55Q61.83 20.95 62.73 20.95L62.73 20.95Q63.50 20.95 63.89 20.63Q64.28 20.32 64.28 19.80L64.28 19.80Q64.28 19.24 63.88 18.94Q63.49 18.63 62.46 18.32Q61.43 18.01 60.82 17.63L60.82 17.63Q59.65 16.90 59.65 15.72L59.65 15.72Q59.65 14.69 60.49 14.02Q61.33 13.35 62.67 13.35L62.67 13.35Q63.56 13.35 64.26 13.68Q64.96 14.01 65.36 14.61Q65.76 15.22 65.76 15.96L65.76 15.96L64.28 15.96Q64.28 15.29 63.86 14.91Q63.44 14.54 62.66 14.54L62.66 14.54Q61.94 14.54 61.53 14.85Q61.13 15.16 61.13 15.71L61.13 15.71Q61.13 16.18 61.57 16.50Q62.00 16.81 63.00 17.10Q63.99 17.40 64.60 17.78Q65.20 18.16 65.48 18.65Q65.76 19.13 65.76 19.79L65.76 19.79Q65.76 20.86 64.94 21.49Q64.13 22.12 62.73 22.12L62.73 22.12Q61.80 22.12 61.02 21.77Q60.25 21.43 59.82 20.83Q59.39 20.22 59.39 19.42ZM70.83 22L69.29 22L72.51 13.47L73.84 13.47L77.07 22L75.52 22L74.83 20.01L71.52 20.01L70.83 22ZM73.17 15.28L71.94 18.82L74.41 18.82L73.17 15.28ZM82.51 22L81.03 22L81.03 13.47L84.29 13.47Q85.72 13.47 86.56 14.21Q87.40 14.96 87.40 16.18L87.40 16.18Q87.40 17.44 86.58 18.13Q85.75 18.83 84.27 18.83L84.27 18.83L82.51 18.83L82.51 22ZM82.51 14.66L82.51 17.64L84.29 17.64Q85.08 17.64 85.50 17.27Q85.91 16.90 85.91 16.19L85.91 16.19Q85.91 15.50 85.49 15.09Q85.07 14.68 84.33 14.66L84.33 14.66L82.51 14.66ZM93.17 22L91.68 22L91.68 13.47L94.95 13.47Q96.38 13.47 97.22 14.21Q98.06 14.96 98.06 16.18L98.06 16.18Q98.06 17.44 97.24 18.13Q96.41 18.83 94.93 18.83L94.93 18.83L93.17 18.83L93.17 22ZM93.17 14.66L93.17 17.64L94.95 17.64Q95.74 17.64 96.15 17.27Q96.57 16.90 96.57 16.19L96.57 16.19Q96.57 15.50 96.15 15.09Q95.73 14.68 94.99 14.66L94.99 14.66L93.17 14.66Z" fill="#FFFFFF"/><path class="svg__text" d="M126.82 22L124.62 22L124.62 13.60L126.57 13.60L129.53 18.45L132.41 13.60L134.36 13.60L134.39 22L132.21 22L132.18 17.55L130.02 21.17L128.97 21.17L126.82 17.67L126.82 22ZM146.29 22L139.55 22L139.55 13.60L146.14 13.60L146.14 15.44L141.90 15.44L141.90 16.85L145.64 16.85L145.64 18.63L141.90 18.63L141.90 20.17L146.29 20.17L146.29 22Z" fill="#FFFFFF" x="123.43"/></svg>